<?xml version="1.0" encoding="UTF-8" standalone="no"?>
<!-- Created with Inkscape (http://www.inkscape.org/) -->

<svg
   xmlns:dc="http://purl.org/dc/elements/1.1/"
   xmlns:cc="http://creativecommons.org/ns#"
   xmlns:rdf="http://www.w3.org/1999/02/22-rdf-syntax-ns#"
   xmlns:svg="http://www.w3.org/2000/svg"
   xmlns="http://www.w3.org/2000/svg"
   xmlns:sodipodi="http://sodipodi.sourceforge.net/DTD/sodipodi-0.dtd"
   xmlns:inkscape="http://www.inkscape.org/namespaces/inkscape"
   id="svg3273"
   height="22"
   width="65"
   version="1.1"
   inkscape:version="0.48.5 r10040"
   sodipodi:docname="toggle-off-intl.svg">
  <defs
     id="defs15" />
  <sodipodi:namedview
     pagecolor="#ffffff"
     bordercolor="#666666"
     borderopacity="1"
     objecttolerance="10"
     gridtolerance="10"
     guidetolerance="10"
     inkscape:pageopacity="0"
     inkscape:pageshadow="2"
     inkscape:window-width="1366"
     inkscape:window-height="746"
     id="namedview13"
     showgrid="false"
     inkscape:zoom="10.182338"
     inkscape:cx="30.808817"
     inkscape:cy="4.8833139"
     inkscape:window-x="0"
     inkscape:window-y="22"
     inkscape:window-maximized="1"
     inkscape:current-layer="layer1" />
  <metadata
     id="metadata3278">
    <rdf:RDF>
      <cc:Work
         rdf:about="">
        <dc:format>image/svg+xml</dc:format>
        <dc:type
           rdf:resource="http://purl.org/dc/dcmitype/StillImage" />
        <dc:title />
      </cc:Work>
    </rdf:RDF>
  </metadata>
  <g
     id="layer1"
     transform="translate(-343 -521.36)">
    <rect
       x="-406.5"
       y="522.85999"
       width="63"
       height="19"
       transform="scale(-1,1)"
       rx="4"
       style="color:#000000;fill:none;stroke:#2e3436;stroke-linecap:round"
       ry="4"
       id="rect17456" />
    <rect
       x="-375"
       y="522.35999"
       width="31"
       height="20"
       transform="scale(-1,1)"
       rx="4"
       style="stroke:#5f5f5f;stroke-width:2;stroke-linecap:round"
       ry="4"
       id="rect17458" />
    <g
       transform="matrix(-1,0,0,1,1166.1,414.374)"
       id="g17460">
      <path
         inkscape:connector-curvature="0"
         d="m 803.63,115.49 v 4.295"
         style="fill:none;stroke:#5f5f5f;stroke-width:1px;stroke-linecap:round"
         id="path17462" />
      <path
         inkscape:connector-curvature="0"
         d="m 806.63,115.49 v 4.295"
         style="fill:none;stroke:#5f5f5f;stroke-width:1px;stroke-linecap:round"
         id="path17464" />
      <path
         inkscape:connector-curvature="0"
         d="m 809.62,115.49 v 4.295"
         style="fill:none;stroke:#5f5f5f;stroke-width:1px;stroke-linecap:round"
         id="path17466" />
    </g>
    <path
       inkscape:connector-curvature="0"
       d="m 395.00584,532.35984 c 0,2.20917 -1.79093,4.0001 -4.00011,4.0001 -2.20917,0 -4.00011,-1.79093 -4.00011,-4.0001 0,-2.20918 1.79094,-4.00011 4.00011,-4.00011 2.20918,0 4.00011,1.79093 4.00011,4.00011 z"
       style="color:#000000;fill:none;stroke:#ffffff;stroke-width:2.00010395;stroke-linecap:round"
       id="path18722" />
    <path
       style="fill:#000000;fill-opacity:1;stroke:#ffffff;stroke-width:0.33990231;stroke-miterlimit:4;stroke-opacity:1;stroke-dasharray:none"
       d=""
       id="path3003"
       inkscape:connector-curvature="0"
       transform="translate(343,521.36)" />
    <path
       style="fill:#000000;fill-opacity:1;stroke:#ffffff;stroke-width:0.33990231;stroke-miterlimit:4;stroke-opacity:1;stroke-dasharray:none"
       d="m 46.78603,15.777617 c -0.817169,-0.220095 -1.614998,-0.673778 -2.20365,-1.253101 -1.58024,-1.555192 -1.94273,-3.796498 -0.940329,-5.8141329 0.762938,-1.5356455 2.555373,-2.6221877 4.32574,-2.6221877 4.407386,0 6.616402,5.2686416 3.509907,8.3713476 -0.299603,0.299238 -0.787801,0.679746 -1.084884,0.845574 -1.04257,0.581948 -2.49431,0.77213 -3.606784,0.4725 z m 2.221723,-1.910181 c 0.194625,-0.05332 0.570468,-0.2632 0.835208,-0.466397 1.442399,-1.107089 1.582744,-3.327238 0.288099,-4.5574817 -0.86986,-0.8265889 -2.109585,-1.0875919 -3.203926,-0.674532 -2.012158,0.7594912 -2.591957,3.4326187 -1.074877,4.9556527 0.827869,0.831118 1.906369,1.084981 3.155496,0.742758 z"
       id="path3005"
       inkscape:connector-curvature="0"
       transform="translate(343,521.36)" />
  </g>
</svg>
